<svg width="111" height="118" viewBox="0 0 111 118" fill="none" xmlns="http://www.w3.org/2000/svg">
<path d="M106.308 38.7L109.388 35.0212L69.9444 2.00153L66.8648 5.68028L70.1517 8.43192M106.308 38.7L43.7532 113.425M106.308 38.7L101.73 34.8673M70.1517 8.43192L7.59668 83.1566M70.1517 8.43192L97.1517 31.0347M7.59668 83.1566L4.30972 80.405L2 83.1641L41.4435 116.184L43.7532 113.425M7.59668 83.1566L34.5967 105.759M43.7532 113.425L39.1749 109.592M34.5967 105.759L97.1517 31.0347M34.5967 105.759L39.1749 109.592M97.1517 31.0347L101.73 34.8673M39.1749 109.592L101.73 34.8673" stroke="white" stroke-width="1.44578"/>
</svg>
