<svg width="63" height="63" viewBox="0 0 63 63" fill="none" xmlns="http://www.w3.org/2000/svg">
<path fill-rule="evenodd" clip-rule="evenodd" d="M63 31.5C63 48.8984 48.8965 63 31.5 63C14.1035 63 0 48.8984 0 31.5C0 14.1016 14.1035 0 31.5 0C48.8965 0 63 14.1016 63 31.5ZM28 30.5C28 40.7188 24.8662 49 21 49C17.1338 49 14 40.7188 14 30.5C14 20.2812 17.1338 12 21 12C24.8662 12 28 20.2812 28 30.5ZM42 49C45.8662 49 49 40.7188 49 30.5C49 20.2812 45.8662 12 42 12C38.1338 12 35 20.2812 35 30.5C35 40.7188 38.1338 49 42 49Z" fill="#F80CC1"/>
</svg>
