<svg width="506" height="397" viewBox="0 0 506 397" fill="none" xmlns="http://www.w3.org/2000/svg">
<path d="M16.625 227.551H32.8776" stroke="white" stroke-width="1.49449"/>
<path d="M462.543 226.805H488.697" stroke="white" stroke-width="1.49449"/>
<path d="M462.543 388.207H488.697" stroke="white" stroke-width="1.49449"/>
<path d="M377.355 140.496H403.509" stroke="white" stroke-width="1.49449"/>
<path d="M16.4375 375.504H91.9092" stroke="white" stroke-width="1.49449"/>
<path d="M253.131 67.1372V115.71H240.302M365.591 140.305H313.845V67.1372M301.63 358.874V227.359H387.261M84.2539 325.621H143.66V371.39M107.792 227.67H204.187V325.621M204 38.6797V115.71M204.187 325.621H228.846M204.187 325.621H179.714" stroke="#EFEFEF" stroke-width="1.49449"/>
<path d="M94.1534 66.013H46.3298V102.197H96.4498V115.711H130.582V152.636H105.736V229.228H35.1211V274.931H47.4506V290.689H67.9998V327.304H82.0084V352.897H94.3402V373.633H145.4H241.734V361.304H300.206V376.435H313.283V386.523H462.171V228.421H413.971V213.536H398.592V191.306H376.238V138.625H364.469V64.6476H385.952V17.5713H398.592V3H351.329V17.5713H314.217V39.8018H289.745V64.6476H254.624V39.8018H208.979H155.801V18.3782H107.791V53.6258H94.1534V66.013Z" stroke="#F80CC1" stroke-width="4.85709"/>
<path d="M242.35 163.245L242.343 163.82H238.89C238.905 163.529 238.95 163.275 239.025 163.051C239.1 162.834 239.219 162.64 239.376 162.46C239.533 162.281 239.682 162.139 239.832 162.019C239.981 161.907 240.198 161.765 240.467 161.594C240.9 161.325 241.177 161.123 241.311 160.988C241.595 160.719 241.73 160.413 241.73 160.077C241.73 159.785 241.64 159.546 241.446 159.359C241.259 159.172 241.012 159.075 240.706 159.075C240.347 159.075 240.086 159.202 239.929 159.456C239.772 159.71 239.69 160.024 239.675 160.405H239.032V160.263C239.032 159.74 239.189 159.322 239.503 159.001C239.817 158.687 240.228 158.522 240.736 158.522C241.244 158.522 241.64 158.664 241.939 158.941C242.238 159.225 242.387 159.598 242.387 160.062C242.387 160.263 242.357 160.45 242.29 160.63C242.223 160.809 242.148 160.951 242.066 161.07C241.984 161.19 241.857 161.317 241.692 161.452C241.528 161.586 241.386 161.691 241.274 161.765C241.169 161.84 241.012 161.937 240.803 162.057C240.4 162.303 240.123 162.49 239.989 162.625C239.802 162.819 239.682 163.021 239.63 163.245H242.35Z" fill="white"/>
<path d="M9.13318 223.508L11.2105 228.828H10.4259L9.83559 227.199H7.60133L6.99606 228.828H6.24881L8.3411 223.508H9.13318ZM9.62636 226.639L8.72219 224.18L7.80308 226.639H9.62636Z" fill="white"/>
<path d="M7.23414 373.613L9.00511 373.62C9.52818 373.62 9.93169 373.755 10.2156 374.039C10.4996 374.315 10.6416 374.704 10.6416 375.205C10.6416 375.705 10.4996 376.094 10.2156 376.37C9.93169 376.647 9.52818 376.781 9.01258 376.781H6.53173V371.461H10.1783V372.074H7.23414V373.613ZM9.93916 375.212C9.93916 374.554 9.5506 374.233 8.77346 374.233H7.22667V376.176H8.77346C9.5506 376.176 9.93916 375.855 9.93916 375.212Z" fill="white"/>
<path d="M410.043 136.828L412.315 136.836C412.801 136.836 413.204 136.94 413.526 137.157C413.847 137.366 414.011 137.702 414.011 138.166C414.011 138.427 413.937 138.659 413.795 138.868C413.653 139.077 413.466 139.219 413.227 139.309C413.555 139.384 413.802 139.533 413.981 139.772C414.161 140.004 414.25 140.295 414.25 140.646C414.25 141.648 413.578 142.148 412.233 142.148H410.043V136.828ZM410.731 137.433V139.115H411.994C412.136 139.115 412.255 139.107 412.36 139.1C412.465 139.092 412.577 139.077 412.711 139.047C412.838 139.017 412.943 138.973 413.017 138.913C413.092 138.853 413.159 138.771 413.219 138.666C413.279 138.554 413.301 138.42 413.301 138.27C413.301 138.113 413.279 137.979 413.227 137.874C413.182 137.77 413.122 137.687 413.047 137.628C412.98 137.568 412.883 137.53 412.763 137.501C412.644 137.471 412.532 137.448 412.435 137.441C412.337 137.433 412.21 137.433 412.061 137.433H410.731ZM410.731 139.668L410.723 141.566H412.128C412.308 141.566 412.45 141.558 412.554 141.551C412.666 141.543 412.793 141.521 412.928 141.491C413.062 141.454 413.174 141.401 413.249 141.334C413.331 141.267 413.399 141.17 413.451 141.043C413.511 140.915 413.533 140.766 413.533 140.587C413.533 140.437 413.518 140.303 413.481 140.198C413.443 140.086 413.384 139.996 413.294 139.937C413.204 139.869 413.122 139.817 413.047 139.78C412.973 139.735 412.861 139.712 412.719 139.697C412.569 139.683 412.457 139.668 412.382 139.668C412.3 139.668 412.181 139.668 412.016 139.668H410.731Z" fill="white"/>
<path d="M496.304 229.57H495.602V224.25H499.099V224.863H496.304V229.57Z" fill="white"/>
<path d="M499.541 390.807H498.861V389.484H495.013V390.807H494.333V388.872H494.856C495.058 388.513 495.222 387.99 495.357 387.31C495.484 386.63 495.551 385.927 495.551 385.195V384.164H498.951V388.872H499.541V390.807ZM498.248 388.872V384.777H496.238V385.502C496.238 386.144 496.179 386.787 496.059 387.415C495.939 388.042 495.797 388.528 495.633 388.872H498.248Z" fill="white"/>
<path d="M235.539 204.182L235.532 204.742H233.387L233.073 206.319C233.335 206.043 233.693 205.901 234.149 205.901C234.642 205.901 235.046 206.065 235.36 206.386C235.666 206.708 235.823 207.126 235.823 207.634C235.823 208.172 235.651 208.621 235.315 208.964C234.971 209.316 234.53 209.487 233.992 209.487C233.484 209.487 233.081 209.353 232.767 209.069C232.453 208.792 232.296 208.419 232.281 207.956H232.924C232.946 208.254 233.058 208.494 233.26 208.673C233.454 208.86 233.701 208.949 234 208.949C234.329 208.949 234.598 208.83 234.822 208.591C235.038 208.352 235.15 208.06 235.15 207.702C235.15 207.335 235.038 207.036 234.829 206.805C234.612 206.573 234.336 206.454 233.992 206.454C233.551 206.454 233.215 206.625 232.976 206.969L232.431 206.932L232.924 204.182H235.539ZM239.811 208.807L239.803 209.383H236.351C236.366 209.091 236.411 208.837 236.486 208.613C236.56 208.396 236.68 208.202 236.837 208.023C236.994 207.843 237.143 207.702 237.293 207.582C237.442 207.47 237.659 207.328 237.928 207.156C238.361 206.887 238.638 206.685 238.772 206.551C239.056 206.282 239.191 205.975 239.191 205.639C239.191 205.348 239.101 205.109 238.907 204.922C238.72 204.735 238.473 204.638 238.167 204.638C237.808 204.638 237.547 204.765 237.39 205.019C237.233 205.273 237.151 205.587 237.136 205.968H236.493V205.826C236.493 205.303 236.65 204.884 236.964 204.563C237.278 204.249 237.689 204.085 238.197 204.085C238.705 204.085 239.101 204.227 239.4 204.503C239.699 204.787 239.848 205.161 239.848 205.624C239.848 205.826 239.818 206.013 239.751 206.192C239.684 206.371 239.609 206.513 239.527 206.633C239.445 206.753 239.318 206.88 239.153 207.014C238.989 207.149 238.847 207.253 238.735 207.328C238.63 207.403 238.473 207.5 238.264 207.619C237.86 207.866 237.584 208.053 237.449 208.187C237.263 208.382 237.143 208.583 237.091 208.807H239.811ZM242.394 204.085C242.708 204.085 242.984 204.145 243.208 204.264C243.432 204.384 243.612 204.526 243.731 204.69C243.851 204.862 243.941 205.086 244.015 205.355C244.083 205.624 244.127 205.871 244.142 206.087C244.157 206.304 244.165 206.566 244.165 206.865C244.165 207.149 244.15 207.395 244.127 207.619C244.105 207.843 244.06 208.083 243.985 208.322C243.911 208.568 243.813 208.77 243.694 208.934C243.567 209.099 243.395 209.226 243.186 209.331C242.969 209.435 242.715 209.487 242.424 209.487C242.11 209.487 241.841 209.435 241.617 209.331C241.392 209.226 241.213 209.091 241.094 208.934C240.966 208.77 240.869 208.568 240.795 208.322C240.72 208.075 240.675 207.843 240.653 207.619C240.638 207.395 240.623 207.141 240.623 206.85C240.623 206.603 240.63 206.386 240.645 206.2C240.66 206.02 240.683 205.811 240.72 205.579C240.757 205.348 240.817 205.153 240.892 204.989C240.974 204.825 241.079 204.675 241.206 204.526C241.325 204.384 241.49 204.272 241.691 204.197C241.893 204.122 242.125 204.085 242.394 204.085ZM242.394 204.653C242.237 204.653 242.102 204.683 241.983 204.742C241.863 204.802 241.766 204.862 241.691 204.937C241.617 205.011 241.549 205.124 241.497 205.273C241.437 205.422 241.4 205.542 241.377 205.639C241.355 205.744 241.34 205.886 241.325 206.073C241.31 206.259 241.303 206.394 241.303 206.469V206.85C241.303 207.029 241.303 207.171 241.31 207.283C241.31 207.403 241.325 207.552 241.348 207.731C241.363 207.918 241.4 208.075 241.452 208.195C241.497 208.314 241.564 208.441 241.639 208.561C241.714 208.68 241.811 208.778 241.945 208.837C242.08 208.897 242.229 208.927 242.409 208.927C242.558 208.927 242.685 208.905 242.805 208.845C242.924 208.792 243.021 208.725 243.096 208.651C243.171 208.576 243.231 208.471 243.283 208.337C243.335 208.202 243.373 208.083 243.403 207.978C243.425 207.873 243.44 207.739 243.455 207.567C243.47 207.395 243.477 207.268 243.477 207.186C243.477 207.104 243.485 206.984 243.485 206.82V206.446C243.485 206.371 243.477 206.244 243.462 206.058C243.447 205.878 243.425 205.736 243.403 205.632C243.38 205.535 243.343 205.415 243.29 205.265C243.231 205.124 243.171 205.011 243.096 204.937C243.021 204.862 242.924 204.802 242.805 204.742C242.685 204.683 242.543 204.653 242.394 204.653ZM246.546 204.085C246.86 204.085 247.136 204.145 247.36 204.264C247.585 204.384 247.764 204.526 247.883 204.69C248.003 204.862 248.093 205.086 248.167 205.355C248.235 205.624 248.28 205.871 248.294 206.087C248.309 206.304 248.317 206.566 248.317 206.865C248.317 207.149 248.302 207.395 248.28 207.619C248.257 207.843 248.212 208.083 248.138 208.322C248.063 208.568 247.966 208.77 247.846 208.934C247.719 209.099 247.547 209.226 247.338 209.331C247.121 209.435 246.867 209.487 246.576 209.487C246.262 209.487 245.993 209.435 245.769 209.331C245.545 209.226 245.365 209.091 245.246 208.934C245.119 208.77 245.022 208.568 244.947 208.322C244.872 208.075 244.827 207.843 244.805 207.619C244.79 207.395 244.775 207.141 244.775 206.85C244.775 206.603 244.782 206.386 244.797 206.2C244.812 206.02 244.835 205.811 244.872 205.579C244.909 205.348 244.969 205.153 245.044 204.989C245.126 204.825 245.231 204.675 245.358 204.526C245.477 204.384 245.642 204.272 245.843 204.197C246.045 204.122 246.277 204.085 246.546 204.085ZM246.546 204.653C246.389 204.653 246.254 204.683 246.135 204.742C246.015 204.802 245.918 204.862 245.843 204.937C245.769 205.011 245.702 205.124 245.649 205.273C245.589 205.422 245.552 205.542 245.53 205.639C245.507 205.744 245.492 205.886 245.477 206.073C245.462 206.259 245.455 206.394 245.455 206.469V206.85C245.455 207.029 245.455 207.171 245.462 207.283C245.462 207.403 245.477 207.552 245.5 207.731C245.515 207.918 245.552 208.075 245.604 208.195C245.649 208.314 245.716 208.441 245.791 208.561C245.866 208.68 245.963 208.778 246.098 208.837C246.232 208.897 246.382 208.927 246.561 208.927C246.71 208.927 246.837 208.905 246.957 208.845C247.076 208.792 247.174 208.725 247.248 208.651C247.323 208.576 247.383 208.471 247.435 208.337C247.487 208.202 247.525 208.083 247.555 207.978C247.577 207.873 247.592 207.739 247.607 207.567C247.622 207.395 247.629 207.268 247.629 207.186C247.629 207.104 247.637 206.984 247.637 206.82V206.446C247.637 206.371 247.629 206.244 247.614 206.058C247.6 205.878 247.577 205.736 247.555 205.632C247.532 205.535 247.495 205.415 247.443 205.265C247.383 205.124 247.323 205.011 247.248 204.937C247.174 204.862 247.076 204.802 246.957 204.742C246.837 204.683 246.695 204.653 246.546 204.653Z" fill="white"/>
<path d="M380.031 364.756V370.047H379.336V366.214H378.006V365.735C378.432 365.735 378.768 365.668 379.022 365.526C379.276 365.392 379.44 365.13 379.53 364.756H380.031ZM385.147 369.471L385.139 370.047H381.687C381.702 369.755 381.747 369.501 381.821 369.277C381.896 369.061 382.016 368.866 382.173 368.687C382.33 368.508 382.479 368.366 382.629 368.246C382.778 368.134 382.995 367.992 383.264 367.82C383.697 367.551 383.974 367.349 384.108 367.215C384.392 366.946 384.527 366.639 384.527 366.303C384.527 366.012 384.437 365.773 384.243 365.586C384.056 365.399 383.809 365.302 383.503 365.302C383.144 365.302 382.883 365.429 382.726 365.683C382.569 365.937 382.487 366.251 382.472 366.632H381.829V366.49C381.829 365.967 381.986 365.548 382.3 365.227C382.614 364.913 383.025 364.749 383.533 364.749C384.041 364.749 384.437 364.891 384.736 365.167C385.035 365.451 385.184 365.825 385.184 366.288C385.184 366.49 385.154 366.677 385.087 366.856C385.02 367.035 384.945 367.177 384.863 367.297C384.781 367.417 384.654 367.544 384.489 367.678C384.325 367.813 384.183 367.917 384.071 367.992C383.966 368.067 383.809 368.164 383.6 368.283C383.196 368.53 382.92 368.717 382.785 368.851C382.599 369.046 382.479 369.247 382.427 369.471H385.147ZM387.73 364.749C388.044 364.749 388.32 364.809 388.544 364.928C388.768 365.048 388.948 365.19 389.067 365.354C389.187 365.526 389.276 365.75 389.351 366.019C389.418 366.288 389.463 366.535 389.478 366.752C389.493 366.968 389.501 367.23 389.501 367.529C389.501 367.813 389.486 368.059 389.463 368.283C389.441 368.508 389.396 368.747 389.321 368.986C389.247 369.232 389.149 369.434 389.03 369.599C388.903 369.763 388.731 369.89 388.522 369.995C388.305 370.099 388.051 370.151 387.76 370.151C387.446 370.151 387.177 370.099 386.953 369.995C386.728 369.89 386.549 369.755 386.429 369.599C386.302 369.434 386.205 369.232 386.131 368.986C386.056 368.739 386.011 368.508 385.989 368.283C385.974 368.059 385.959 367.805 385.959 367.514C385.959 367.267 385.966 367.05 385.981 366.864C385.996 366.684 386.018 366.475 386.056 366.243C386.093 366.012 386.153 365.817 386.228 365.653C386.31 365.489 386.415 365.339 386.542 365.19C386.661 365.048 386.826 364.936 387.027 364.861C387.229 364.786 387.461 364.749 387.73 364.749ZM387.73 365.317C387.573 365.317 387.438 365.347 387.319 365.406C387.199 365.466 387.102 365.526 387.027 365.601C386.953 365.675 386.885 365.788 386.833 365.937C386.773 366.086 386.736 366.206 386.713 366.303C386.691 366.408 386.676 366.55 386.661 366.737C386.646 366.923 386.639 367.058 386.639 367.133V367.514C386.639 367.693 386.639 367.835 386.646 367.947C386.646 368.067 386.661 368.216 386.684 368.395C386.698 368.582 386.736 368.739 386.788 368.859C386.833 368.978 386.9 369.105 386.975 369.225C387.05 369.344 387.147 369.442 387.281 369.501C387.416 369.561 387.565 369.591 387.745 369.591C387.894 369.591 388.021 369.569 388.141 369.509C388.26 369.457 388.357 369.389 388.432 369.315C388.507 369.24 388.567 369.135 388.619 369.001C388.671 368.866 388.709 368.747 388.738 368.642C388.761 368.537 388.776 368.403 388.791 368.231C388.806 368.059 388.813 367.932 388.813 367.85C388.813 367.768 388.821 367.648 388.821 367.484V367.11C388.821 367.035 388.813 366.908 388.798 366.722C388.783 366.542 388.761 366.4 388.738 366.296C388.716 366.199 388.679 366.079 388.626 365.93C388.567 365.788 388.507 365.675 388.432 365.601C388.357 365.526 388.26 365.466 388.141 365.406C388.021 365.347 387.879 365.317 387.73 365.317ZM391.882 364.749C392.196 364.749 392.472 364.809 392.696 364.928C392.921 365.048 393.1 365.19 393.219 365.354C393.339 365.526 393.429 365.75 393.503 366.019C393.571 366.288 393.615 366.535 393.63 366.752C393.645 366.968 393.653 367.23 393.653 367.529C393.653 367.813 393.638 368.059 393.615 368.283C393.593 368.508 393.548 368.747 393.473 368.986C393.399 369.232 393.302 369.434 393.182 369.599C393.055 369.763 392.883 369.89 392.674 369.995C392.457 370.099 392.203 370.151 391.912 370.151C391.598 370.151 391.329 370.099 391.105 369.995C390.881 369.89 390.701 369.755 390.582 369.599C390.455 369.434 390.357 369.232 390.283 368.986C390.208 368.739 390.163 368.508 390.141 368.283C390.126 368.059 390.111 367.805 390.111 367.514C390.111 367.267 390.118 367.05 390.133 366.864C390.148 366.684 390.171 366.475 390.208 366.243C390.245 366.012 390.305 365.817 390.38 365.653C390.462 365.489 390.567 365.339 390.694 365.19C390.813 365.048 390.978 364.936 391.179 364.861C391.381 364.786 391.613 364.749 391.882 364.749ZM391.882 365.317C391.725 365.317 391.59 365.347 391.471 365.406C391.351 365.466 391.254 365.526 391.179 365.601C391.105 365.675 391.037 365.788 390.985 365.937C390.925 366.086 390.888 366.206 390.866 366.303C390.843 366.408 390.828 366.55 390.813 366.737C390.798 366.923 390.791 367.058 390.791 367.133V367.514C390.791 367.693 390.791 367.835 390.798 367.947C390.798 368.067 390.813 368.216 390.836 368.395C390.851 368.582 390.888 368.739 390.94 368.859C390.985 368.978 391.052 369.105 391.127 369.225C391.202 369.344 391.299 369.442 391.433 369.501C391.568 369.561 391.717 369.591 391.897 369.591C392.046 369.591 392.173 369.569 392.293 369.509C392.412 369.457 392.51 369.389 392.584 369.315C392.659 369.24 392.719 369.135 392.771 369.001C392.823 368.866 392.861 368.747 392.891 368.642C392.913 368.537 392.928 368.403 392.943 368.231C392.958 368.059 392.965 367.932 392.965 367.85C392.965 367.768 392.973 367.648 392.973 367.484V367.11C392.973 367.035 392.965 366.908 392.95 366.722C392.935 366.542 392.913 366.4 392.891 366.296C392.868 366.199 392.831 366.079 392.779 365.93C392.719 365.788 392.659 365.675 392.584 365.601C392.51 365.526 392.412 365.466 392.293 365.406C392.173 365.347 392.031 365.317 391.882 365.317Z" fill="white"/>
<path d="M412.102 230.539L412.102 383.724" stroke="white" stroke-width="1.49449" stroke-dasharray="2.99 2.99"/>
<path d="M148.109 56.6039L148.102 57.1643H145.957L145.643 58.741C145.905 58.4645 146.264 58.3225 146.719 58.3225C147.213 58.3225 147.616 58.4869 147.93 58.8082C148.236 59.1296 148.393 59.548 148.393 60.0561C148.393 60.5942 148.221 61.0425 147.885 61.3862C147.541 61.7374 147.101 61.9093 146.563 61.9093C146.054 61.9093 145.651 61.7748 145.337 61.4908C145.023 61.2144 144.866 60.8407 144.851 60.3775H145.494C145.516 60.6763 145.629 60.9155 145.83 61.0948C146.025 61.2816 146.271 61.3713 146.57 61.3713C146.899 61.3713 147.168 61.2517 147.392 61.0126C147.609 60.7735 147.721 60.4821 147.721 60.1234C147.721 59.7572 147.609 59.4583 147.399 59.2267C147.183 58.995 146.906 58.8755 146.563 58.8755C146.122 58.8755 145.785 59.0474 145.546 59.3911L145.001 59.3537L145.494 56.6039H148.109ZM149.086 58.2254C149.101 57.6799 149.25 57.2614 149.542 56.9625C149.833 56.6636 150.244 56.5142 150.767 56.5142C151.23 56.5142 151.611 56.6412 151.895 56.8953C152.179 57.1494 152.321 57.4781 152.321 57.8966C152.321 58.1432 152.254 58.3674 152.127 58.5616C152 58.7559 151.821 58.9054 151.596 59.0025C151.895 59.0698 152.127 59.2192 152.306 59.4509C152.478 59.675 152.568 59.9515 152.568 60.2803C152.568 60.766 152.404 61.1621 152.06 61.461C151.716 61.7599 151.275 61.9168 150.737 61.9168C150.199 61.9168 149.766 61.7673 149.444 61.4684C149.123 61.1695 148.966 60.7735 148.966 60.2728V60.1757H149.594C149.609 60.5493 149.713 60.8407 149.915 61.05C150.109 61.2517 150.386 61.3563 150.745 61.3563C151.081 61.3563 151.357 61.2592 151.567 61.0649C151.776 60.8706 151.88 60.624 151.88 60.3177C151.88 60.0113 151.776 59.7647 151.567 59.5779C151.357 59.3986 151.066 59.3014 150.707 59.3014C150.618 59.3014 150.506 59.3164 150.364 59.3313V58.7933C150.438 58.8008 150.506 58.8008 150.58 58.8008C150.909 58.8008 151.171 58.726 151.365 58.5691C151.559 58.4122 151.649 58.1955 151.649 57.9265C151.649 57.6724 151.567 57.4632 151.402 57.2988C151.238 57.1419 151.014 57.0597 150.737 57.0597C150.416 57.0597 150.169 57.1643 149.99 57.3661C149.811 57.5678 149.713 57.8518 149.706 58.2254H149.086ZM154.964 56.5067C155.278 56.5067 155.554 56.5665 155.779 56.6861C156.003 56.8056 156.182 56.9476 156.302 57.112C156.421 57.2839 156.511 57.508 156.586 57.777C156.653 58.046 156.698 58.2926 156.713 58.5093C156.728 58.726 156.735 58.9876 156.735 59.2865C156.735 59.5704 156.72 59.817 156.698 60.0412C156.675 60.2654 156.63 60.5045 156.556 60.7436C156.481 60.9902 156.384 61.1919 156.264 61.3563C156.137 61.5207 155.965 61.6478 155.756 61.7524C155.539 61.857 155.285 61.9093 154.994 61.9093C154.68 61.9093 154.411 61.857 154.187 61.7524C153.963 61.6478 153.783 61.5133 153.664 61.3563C153.537 61.1919 153.44 60.9902 153.365 60.7436C153.29 60.497 153.245 60.2654 153.223 60.0412C153.208 59.817 153.193 59.563 153.193 59.2715C153.193 59.0249 153.201 58.8082 153.215 58.6214C153.23 58.4421 153.253 58.2329 153.29 58.0012C153.328 57.7696 153.387 57.5753 153.462 57.4109C153.544 57.2465 153.649 57.097 153.776 56.9476C153.895 56.8056 154.06 56.6935 154.262 56.6188C154.463 56.5441 154.695 56.5067 154.964 56.5067ZM154.964 57.0746C154.807 57.0746 154.673 57.1045 154.553 57.1643C154.434 57.2241 154.336 57.2839 154.262 57.3586C154.187 57.4333 154.12 57.5454 154.067 57.6948C154.008 57.8443 153.97 57.9639 153.948 58.061C153.925 58.1656 153.91 58.3076 153.895 58.4944C153.881 58.6812 153.873 58.8157 153.873 58.8904V59.2715C153.873 59.4509 153.873 59.5928 153.881 59.7049C153.881 59.8245 153.895 59.9739 153.918 60.1533C153.933 60.3401 153.97 60.497 154.023 60.6166C154.067 60.7361 154.135 60.8632 154.209 60.9827C154.284 61.1023 154.381 61.1994 154.516 61.2592C154.65 61.319 154.8 61.3489 154.979 61.3489C155.128 61.3489 155.255 61.3265 155.375 61.2667C155.495 61.2144 155.592 61.1471 155.666 61.0724C155.741 60.9977 155.801 60.893 155.853 60.7585C155.906 60.624 155.943 60.5045 155.973 60.3999C155.995 60.2953 156.01 60.1608 156.025 59.9889C156.04 59.817 156.048 59.69 156.048 59.6078C156.048 59.5256 156.055 59.406 156.055 59.2416V58.868C156.055 58.7933 156.048 58.6663 156.033 58.4795C156.018 58.3001 155.995 58.1581 155.973 58.0535C155.95 57.9564 155.913 57.8368 155.861 57.6874C155.801 57.5454 155.741 57.4333 155.666 57.3586C155.592 57.2839 155.495 57.2241 155.375 57.1643C155.255 57.1045 155.113 57.0746 154.964 57.0746Z" fill="white"/>
<path d="M327.569 59.7371L327.561 60.3125H324.109C324.124 60.0211 324.169 59.767 324.244 59.5428C324.318 59.3261 324.438 59.1319 324.595 58.9525C324.752 58.7732 324.901 58.6312 325.051 58.5116C325.2 58.3996 325.417 58.2576 325.686 58.0857C326.119 57.8167 326.396 57.6149 326.53 57.4804C326.814 57.2114 326.949 56.9051 326.949 56.5688C326.949 56.2774 326.859 56.0383 326.665 55.8515C326.478 55.6646 326.231 55.5675 325.925 55.5675C325.566 55.5675 325.305 55.6945 325.148 55.9486C324.991 56.2027 324.909 56.5165 324.894 56.8976H324.251V56.7556C324.251 56.2325 324.408 55.8141 324.722 55.4928C325.036 55.1789 325.447 55.0145 325.955 55.0145C326.463 55.0145 326.859 55.1565 327.158 55.433C327.457 55.7169 327.606 56.0906 327.606 56.5539C327.606 56.7556 327.576 56.9424 327.509 57.1218C327.442 57.3011 327.367 57.4431 327.285 57.5626C327.203 57.6822 327.076 57.8092 326.911 57.9437C326.747 58.0782 326.605 58.1829 326.493 58.2576C326.388 58.3323 326.231 58.4294 326.022 58.549C325.618 58.7956 325.342 58.9824 325.207 59.1169C325.021 59.3112 324.901 59.5129 324.849 59.7371H327.569ZM331.721 59.7371L331.713 60.3125H328.261C328.276 60.0211 328.321 59.767 328.396 59.5428C328.47 59.3261 328.59 59.1319 328.747 58.9525C328.904 58.7732 329.053 58.6312 329.203 58.5116C329.352 58.3996 329.569 58.2576 329.838 58.0857C330.271 57.8167 330.548 57.6149 330.682 57.4804C330.966 57.2114 331.101 56.9051 331.101 56.5688C331.101 56.2774 331.011 56.0383 330.817 55.8515C330.63 55.6646 330.383 55.5675 330.077 55.5675C329.718 55.5675 329.457 55.6945 329.3 55.9486C329.143 56.2027 329.061 56.5165 329.046 56.8976H328.403V56.7556C328.403 56.2325 328.56 55.8141 328.874 55.4928C329.188 55.1789 329.599 55.0145 330.107 55.0145C330.615 55.0145 331.011 55.1565 331.31 55.433C331.609 55.7169 331.758 56.0906 331.758 56.5539C331.758 56.7556 331.728 56.9424 331.661 57.1218C331.594 57.3011 331.519 57.4431 331.437 57.5626C331.355 57.6822 331.228 57.8092 331.063 57.9437C330.899 58.0782 330.757 58.1829 330.645 58.2576C330.54 58.3323 330.383 58.4294 330.174 58.549C329.771 58.7956 329.494 58.9824 329.36 59.1169C329.173 59.3112 329.053 59.5129 329.001 59.7371H331.721ZM334.304 55.0145C334.618 55.0145 334.894 55.0743 335.118 55.1939C335.343 55.3134 335.522 55.4554 335.641 55.6198C335.761 55.7917 335.851 56.0158 335.925 56.2849C335.993 56.5539 336.037 56.8005 336.052 57.0172C336.067 57.2339 336.075 57.4954 336.075 57.7943C336.075 58.0782 336.06 58.3248 336.037 58.549C336.015 58.7732 335.97 59.0123 335.896 59.2514C335.821 59.498 335.724 59.6998 335.604 59.8642C335.477 60.0285 335.305 60.1556 335.096 60.2602C334.879 60.3648 334.625 60.4171 334.334 60.4171C334.02 60.4171 333.751 60.3648 333.527 60.2602C333.303 60.1556 333.123 60.0211 333.004 59.8642C332.877 59.6998 332.78 59.498 332.705 59.2514C332.63 59.0048 332.585 58.7732 332.563 58.549C332.548 58.3248 332.533 58.0708 332.533 57.7793C332.533 57.5328 332.54 57.3161 332.555 57.1292C332.57 56.9499 332.593 56.7407 332.63 56.509C332.667 56.2774 332.727 56.0831 332.802 55.9187C332.884 55.7543 332.989 55.6049 333.116 55.4554C333.235 55.3134 333.4 55.2013 333.601 55.1266C333.803 55.0519 334.035 55.0145 334.304 55.0145ZM334.304 55.5824C334.147 55.5824 334.012 55.6123 333.893 55.6721C333.773 55.7319 333.676 55.7917 333.601 55.8664C333.527 55.9411 333.46 56.0532 333.407 56.2027C333.347 56.3521 333.31 56.4717 333.288 56.5688C333.265 56.6734 333.25 56.8154 333.235 57.0022C333.22 57.189 333.213 57.3235 333.213 57.3982V57.7793C333.213 57.9587 333.213 58.1007 333.22 58.2127C333.22 58.3323 333.235 58.4818 333.258 58.6611C333.273 58.8479 333.31 59.0048 333.362 59.1244C333.407 59.2439 333.474 59.371 333.549 59.4905C333.624 59.6101 333.721 59.7072 333.856 59.767C333.99 59.8268 334.139 59.8567 334.319 59.8567C334.468 59.8567 334.595 59.8343 334.715 59.7745C334.834 59.7222 334.932 59.6549 335.006 59.5802C335.081 59.5055 335.141 59.4009 335.193 59.2664C335.245 59.1319 335.283 59.0123 335.313 58.9077C335.335 58.8031 335.35 58.6686 335.365 58.4967C335.38 58.3248 335.387 58.1978 335.387 58.1156C335.387 58.0334 335.395 57.9138 335.395 57.7495V57.3758C335.395 57.3011 335.387 57.1741 335.372 56.9873C335.358 56.8079 335.335 56.6659 335.313 56.5613C335.29 56.4642 335.253 56.3446 335.201 56.1952C335.141 56.0532 335.081 55.9411 335.006 55.8664C334.932 55.7917 334.834 55.7319 334.715 55.6721C334.595 55.6123 334.453 55.5824 334.304 55.5824Z" fill="white"/>
<path d="M400.512 60.2187V62.2288C400.796 61.8028 401.214 61.5861 401.775 61.5861C402.641 61.5861 403.075 62.027 403.075 62.9013V65.5391H402.44V63.0507C402.44 62.7593 402.372 62.5351 402.253 62.3782C402.133 62.2213 401.909 62.1391 401.595 62.1391C401.207 62.1391 400.923 62.2661 400.758 62.5127C400.594 62.7668 400.512 63.118 400.512 63.5813V65.5391H399.877V60.2187H400.512ZM406.091 63.1479V63.7756H403.917V63.1479H406.091ZM408.525 60.2411C408.839 60.2411 409.115 60.3009 409.339 60.4204C409.563 60.54 409.743 60.682 409.862 60.8464C409.982 61.0182 410.072 61.2424 410.146 61.5114C410.214 61.7804 410.258 62.027 410.273 62.2437C410.288 62.4604 410.296 62.722 410.296 63.0208C410.296 63.3048 410.281 63.5514 410.258 63.7756C410.236 63.9997 410.191 64.2389 410.116 64.478C410.042 64.7246 409.945 64.9263 409.825 65.0907C409.698 65.2551 409.526 65.3821 409.317 65.4868C409.1 65.5914 408.846 65.6437 408.555 65.6437C408.241 65.6437 407.972 65.5914 407.748 65.4868C407.523 65.3821 407.344 65.2476 407.225 65.0907C407.098 64.9263 407 64.7246 406.926 64.478C406.851 64.2314 406.806 63.9997 406.784 63.7756C406.769 63.5514 406.754 63.2973 406.754 63.0059C406.754 62.7593 406.761 62.5426 406.776 62.3558C406.791 62.1765 406.814 61.9672 406.851 61.7356C406.888 61.5039 406.948 61.3097 407.023 61.1453C407.105 60.9809 407.21 60.8314 407.337 60.682C407.456 60.54 407.621 60.4279 407.822 60.3532C408.024 60.2785 408.256 60.2411 408.525 60.2411ZM408.525 60.809C408.368 60.809 408.233 60.8389 408.114 60.8987C407.994 60.9585 407.897 61.0182 407.822 61.093C407.748 61.1677 407.68 61.2798 407.628 61.4292C407.568 61.5787 407.531 61.6982 407.509 61.7954C407.486 61.9 407.471 62.042 407.456 62.2288C407.441 62.4156 407.434 62.5501 407.434 62.6248V63.0059C407.434 63.1852 407.434 63.3272 407.441 63.4393C407.441 63.5589 407.456 63.7083 407.479 63.8877C407.494 64.0745 407.531 64.2314 407.583 64.3509C407.628 64.4705 407.695 64.5975 407.77 64.7171C407.845 64.8367 407.942 64.9338 408.076 64.9936C408.211 65.0534 408.36 65.0832 408.54 65.0832C408.689 65.0832 408.816 65.0608 408.936 65.001C409.055 64.9487 409.152 64.8815 409.227 64.8068C409.302 64.732 409.362 64.6274 409.414 64.4929C409.466 64.3584 409.504 64.2389 409.534 64.1342C409.556 64.0296 409.571 63.8951 409.586 63.7233C409.601 63.5514 409.608 63.4244 409.608 63.3422C409.608 63.26 409.616 63.1404 409.616 62.976V62.6024C409.616 62.5277 409.608 62.4006 409.593 62.2138C409.578 62.0345 409.556 61.8925 409.534 61.7879C409.511 61.6908 409.474 61.5712 409.421 61.4217C409.362 61.2798 409.302 61.1677 409.227 61.093C409.152 61.0182 409.055 60.9585 408.936 60.8987C408.816 60.8389 408.674 60.809 408.525 60.809ZM412.057 64.7096V65.5391H411.227V64.7096H412.057ZM416.326 64.9637L416.318 65.5391H412.866C412.881 65.2476 412.926 64.9936 413.001 64.7694C413.075 64.5527 413.195 64.3584 413.352 64.1791C413.509 63.9997 413.658 63.8578 413.808 63.7382C413.957 63.6261 414.174 63.4841 414.443 63.3123C414.876 63.0433 415.153 62.8415 415.287 62.707C415.571 62.438 415.706 62.1316 415.706 61.7954C415.706 61.5039 415.616 61.2648 415.422 61.078C415.235 60.8912 414.988 60.7941 414.682 60.7941C414.323 60.7941 414.062 60.9211 413.905 61.1752C413.748 61.4292 413.666 61.7431 413.651 62.1242H413.008V61.9822C413.008 61.4591 413.165 61.0407 413.479 60.7193C413.793 60.4055 414.204 60.2411 414.712 60.2411C415.22 60.2411 415.616 60.3831 415.915 60.6596C416.214 60.9435 416.363 61.3171 416.363 61.7804C416.363 61.9822 416.333 62.169 416.266 62.3483C416.199 62.5277 416.124 62.6696 416.042 62.7892C415.96 62.9088 415.833 63.0358 415.668 63.1703C415.504 63.3048 415.362 63.4094 415.25 63.4841C415.145 63.5589 414.988 63.656 414.779 63.7756C414.376 64.0222 414.099 64.209 413.965 64.3435C413.778 64.5378 413.658 64.7395 413.606 64.9637H416.326ZM420.359 60.3382L420.351 60.8987H418.206L417.893 62.4754C418.154 62.1989 418.513 62.0569 418.969 62.0569C419.462 62.0569 419.865 62.2213 420.179 62.5426C420.486 62.8639 420.642 63.2824 420.642 63.7905C420.642 64.3285 420.471 64.7769 420.134 65.1206C419.791 65.4718 419.35 65.6437 418.812 65.6437C418.304 65.6437 417.9 65.5092 417.586 65.2252C417.272 64.9487 417.115 64.5751 417.101 64.1118H417.743C417.766 64.4107 417.878 64.6498 418.079 64.8292C418.274 65.016 418.52 65.1057 418.819 65.1057C419.148 65.1057 419.417 64.9861 419.641 64.747C419.858 64.5079 419.97 64.2164 419.97 63.8578C419.97 63.4916 419.858 63.1927 419.649 62.9611C419.432 62.7294 419.155 62.6099 418.812 62.6099C418.371 62.6099 418.035 62.7817 417.795 63.1255L417.25 63.0881L417.743 60.3382H420.359Z" fill="white"/>
<path d="M232.758 23.6015V25.6116C233.042 25.1857 233.46 24.969 234.021 24.969C234.888 24.969 235.321 25.4098 235.321 26.2841V28.9219H234.686V26.4336C234.686 26.1421 234.619 25.918 234.499 25.761C234.379 25.6041 234.155 25.5219 233.841 25.5219C233.453 25.5219 233.169 25.6489 233.005 25.8955C232.84 26.1496 232.758 26.5008 232.758 26.9641V28.9219H232.123V23.6015H232.758ZM238.337 26.5307V27.1584H236.163V26.5307H238.337ZM240.771 23.6239C241.085 23.6239 241.361 23.6837 241.585 23.8033C241.81 23.9228 241.989 24.0648 242.108 24.2292C242.228 24.401 242.318 24.6252 242.392 24.8942C242.46 25.1632 242.504 25.4098 242.519 25.6265C242.534 25.8432 242.542 26.1048 242.542 26.4037C242.542 26.6876 242.527 26.9342 242.504 27.1584C242.482 27.3826 242.437 27.6217 242.363 27.8608C242.288 28.1074 242.191 28.3091 242.071 28.4735C241.944 28.6379 241.772 28.765 241.563 28.8696C241.346 28.9742 241.092 29.0265 240.801 29.0265C240.487 29.0265 240.218 28.9742 239.994 28.8696C239.77 28.765 239.59 28.6304 239.471 28.4735C239.344 28.3091 239.247 28.1074 239.172 27.8608C239.097 27.6142 239.052 27.3826 239.03 27.1584C239.015 26.9342 239 26.6801 239 26.3887C239 26.1421 239.007 25.9254 239.022 25.7386C239.037 25.5593 239.06 25.35 239.097 25.1184C239.134 24.8868 239.194 24.6925 239.269 24.5281C239.351 24.3637 239.456 24.2142 239.583 24.0648C239.702 23.9228 239.867 23.8107 240.068 23.736C240.27 23.6613 240.502 23.6239 240.771 23.6239ZM240.771 24.1918C240.614 24.1918 240.479 24.2217 240.36 24.2815C240.24 24.3413 240.143 24.401 240.068 24.4758C239.994 24.5505 239.927 24.6626 239.874 24.812C239.814 24.9615 239.777 25.081 239.755 25.1782C239.732 25.2828 239.717 25.4248 239.702 25.6116C239.687 25.7984 239.68 25.9329 239.68 26.0076V26.3887C239.68 26.5681 239.68 26.71 239.687 26.8221C239.687 26.9417 239.702 27.0911 239.725 27.2705C239.74 27.4573 239.777 27.6142 239.829 27.7338C239.874 27.8533 239.941 27.9803 240.016 28.0999C240.091 28.2195 240.188 28.3166 240.323 28.3764C240.457 28.4362 240.606 28.4661 240.786 28.4661C240.935 28.4661 241.062 28.4436 241.182 28.3839C241.301 28.3316 241.399 28.2643 241.473 28.1896C241.548 28.1149 241.608 28.0102 241.66 27.8757C241.712 27.7412 241.75 27.6217 241.78 27.5171C241.802 27.4124 241.817 27.2779 241.832 27.1061C241.847 26.9342 241.854 26.8072 241.854 26.725C241.854 26.6428 241.862 26.5232 241.862 26.3588V25.9852C241.862 25.9105 241.854 25.7834 241.839 25.5966C241.825 25.4173 241.802 25.2753 241.78 25.1707C241.757 25.0736 241.72 24.954 241.668 24.8046C241.608 24.6626 241.548 24.5505 241.473 24.4758C241.399 24.401 241.301 24.3413 241.182 24.2815C241.062 24.2217 240.92 24.1918 240.771 24.1918ZM244.303 28.0924V28.9219H243.473V28.0924H244.303ZM248.669 24.9988L248.012 25.0063C247.982 24.7523 247.885 24.5505 247.735 24.401C247.586 24.2516 247.376 24.1843 247.115 24.1843C246.936 24.1843 246.779 24.2142 246.637 24.2815C246.495 24.3413 246.383 24.4384 246.293 24.558C246.203 24.6775 246.129 24.8046 246.069 24.9316C246.009 25.0512 245.964 25.2081 245.934 25.3874C245.904 25.5667 245.889 25.7087 245.874 25.8208C245.867 25.9329 245.86 26.0674 245.845 26.2318C246.136 25.7685 246.577 25.5369 247.16 25.5369C247.653 25.5369 248.056 25.6863 248.355 26.0002C248.654 26.314 248.804 26.725 248.804 27.2331C248.804 27.7562 248.647 28.1821 248.333 28.5258C248.019 28.8621 247.593 29.034 247.063 29.034C245.837 29.034 245.217 28.1522 245.217 26.4037C245.217 26.1272 245.239 25.8656 245.269 25.6265C245.299 25.3799 245.359 25.1333 245.449 24.8793C245.538 24.6252 245.65 24.4085 245.792 24.2292C245.927 24.0498 246.114 23.9079 246.345 23.7958C246.577 23.6837 246.846 23.6239 247.145 23.6239C247.586 23.6239 247.944 23.7509 248.213 23.9901C248.482 24.2292 248.632 24.5654 248.669 24.9988ZM247.048 26.0898C246.726 26.0898 246.465 26.1944 246.263 26.4111C246.069 26.6278 245.964 26.9118 245.964 27.263C245.964 27.6217 246.069 27.9131 246.27 28.1373C246.472 28.354 246.734 28.4661 247.063 28.4661C247.384 28.4661 247.645 28.354 247.84 28.1447C248.034 27.9355 248.131 27.6516 248.131 27.2929C248.131 26.9193 248.034 26.6278 247.84 26.4111C247.645 26.1944 247.384 26.0898 247.048 26.0898ZM251.155 23.6239C251.469 23.6239 251.745 23.6837 251.969 23.8033C252.194 23.9228 252.373 24.0648 252.493 24.2292C252.612 24.401 252.702 24.6252 252.776 24.8942C252.844 25.1632 252.889 25.4098 252.904 25.6265C252.918 25.8432 252.926 26.1048 252.926 26.4037C252.926 26.6876 252.911 26.9342 252.889 27.1584C252.866 27.3826 252.821 27.6217 252.747 27.8608C252.672 28.1074 252.575 28.3091 252.455 28.4735C252.328 28.6379 252.156 28.765 251.947 28.8696C251.73 28.9742 251.476 29.0265 251.185 29.0265C250.871 29.0265 250.602 28.9742 250.378 28.8696C250.154 28.765 249.974 28.6304 249.855 28.4735C249.728 28.3091 249.631 28.1074 249.556 27.8608C249.481 27.6142 249.436 27.3826 249.414 27.1584C249.399 26.9342 249.384 26.6801 249.384 26.3887C249.384 26.1421 249.391 25.9254 249.406 25.7386C249.421 25.5593 249.444 25.35 249.481 25.1184C249.518 24.8868 249.578 24.6925 249.653 24.5281C249.735 24.3637 249.84 24.2142 249.967 24.0648C250.086 23.9228 250.251 23.8107 250.453 23.736C250.654 23.6613 250.886 23.6239 251.155 23.6239ZM251.155 24.1918C250.998 24.1918 250.864 24.2217 250.744 24.2815C250.624 24.3413 250.527 24.401 250.453 24.4758C250.378 24.5505 250.311 24.6626 250.258 24.812C250.198 24.9615 250.161 25.081 250.139 25.1782C250.116 25.2828 250.101 25.4248 250.086 25.6116C250.071 25.7984 250.064 25.9329 250.064 26.0076V26.3887C250.064 26.5681 250.064 26.71 250.071 26.8221C250.071 26.9417 250.086 27.0911 250.109 27.2705C250.124 27.4573 250.161 27.6142 250.213 27.7338C250.258 27.8533 250.326 27.9803 250.4 28.0999C250.475 28.2195 250.572 28.3166 250.707 28.3764C250.841 28.4362 250.991 28.4661 251.17 28.4661C251.319 28.4661 251.446 28.4436 251.566 28.3839C251.686 28.3316 251.783 28.2643 251.857 28.1896C251.932 28.1149 251.992 28.0102 252.044 27.8757C252.096 27.7412 252.134 27.6217 252.164 27.5171C252.186 27.4124 252.201 27.2779 252.216 27.1061C252.231 26.9342 252.238 26.8072 252.238 26.725C252.238 26.6428 252.246 26.5232 252.246 26.3588V25.9852C252.246 25.9105 252.238 25.7834 252.224 25.5966C252.209 25.4173 252.186 25.2753 252.164 25.1707C252.141 25.0736 252.104 24.954 252.052 24.8046C251.992 24.6626 251.932 24.5505 251.857 24.4758C251.783 24.401 251.686 24.3413 251.566 24.2815C251.446 24.2217 251.304 24.1918 251.155 24.1918Z" fill="white"/>
<path d="M73.9689 147.273V149.283C74.2528 148.858 74.6713 148.641 75.2317 148.641C76.0985 148.641 76.5319 149.082 76.5319 149.956V152.594H75.8968V150.105C75.8968 149.814 75.8295 149.59 75.7099 149.433C75.5904 149.276 75.3662 149.194 75.0524 149.194C74.6638 149.194 74.3798 149.321 74.2155 149.567C74.0511 149.821 73.9689 150.173 73.9689 150.636V152.594H73.3337L73.3337 147.273H73.9689ZM79.5483 150.203V150.83H77.3738V150.203H79.5483ZM81.9818 147.296C82.2957 147.296 82.5722 147.356 82.7963 147.475C83.0205 147.595 83.1998 147.737 83.3194 147.901C83.439 148.073 83.5286 148.297 83.6034 148.566C83.6706 148.835 83.7154 149.082 83.7304 149.298C83.7453 149.515 83.7528 149.777 83.7528 150.076C83.7528 150.359 83.7379 150.606 83.7154 150.83C83.693 151.054 83.6482 151.294 83.5735 151.533C83.4987 151.779 83.4016 151.981 83.282 152.145C83.155 152.31 82.9831 152.437 82.7739 152.541C82.5572 152.646 82.3031 152.698 82.0117 152.698C81.6979 152.698 81.4289 152.646 81.2047 152.541C80.9805 152.437 80.8012 152.302 80.6816 152.145C80.5546 151.981 80.4575 151.779 80.3827 151.533C80.308 151.286 80.2632 151.054 80.2408 150.83C80.2258 150.606 80.2109 150.352 80.2109 150.061C80.2109 149.814 80.2183 149.597 80.2333 149.41C80.2482 149.231 80.2706 149.022 80.308 148.79C80.3454 148.559 80.4051 148.364 80.4799 148.2C80.5621 148.036 80.6667 147.886 80.7937 147.737C80.9133 147.595 81.0777 147.483 81.2794 147.408C81.4812 147.333 81.7128 147.296 81.9818 147.296ZM81.9818 147.864C81.8249 147.864 81.6904 147.894 81.5708 147.953C81.4513 148.013 81.3541 148.073 81.2794 148.148C81.2047 148.222 81.1374 148.334 81.0851 148.484C81.0254 148.633 80.988 148.753 80.9656 148.85C80.9432 148.955 80.9282 149.097 80.9133 149.283C80.8983 149.47 80.8909 149.605 80.8909 149.679V150.061C80.8909 150.24 80.8909 150.382 80.8983 150.494C80.8983 150.614 80.9133 150.763 80.9357 150.942C80.9506 151.129 80.988 151.286 81.0403 151.406C81.0851 151.525 81.1524 151.652 81.2271 151.772C81.3018 151.891 81.399 151.988 81.5335 152.048C81.668 152.108 81.8174 152.138 81.9968 152.138C82.1462 152.138 82.2733 152.116 82.3928 152.056C82.5124 152.003 82.6095 151.936 82.6842 151.861C82.759 151.787 82.8187 151.682 82.8711 151.548C82.9234 151.413 82.9607 151.294 82.9906 151.189C83.013 151.084 83.028 150.95 83.0429 150.778C83.0579 150.606 83.0653 150.479 83.0653 150.397C83.0653 150.315 83.0728 150.195 83.0728 150.031V149.657C83.0728 149.582 83.0653 149.455 83.0504 149.269C83.0354 149.089 83.013 148.947 82.9906 148.843C82.9682 148.745 82.9308 148.626 82.8785 148.476C82.8187 148.334 82.759 148.222 82.6842 148.148C82.6095 148.073 82.5124 148.013 82.3928 147.953C82.2733 147.894 82.1313 147.864 81.9818 147.864ZM85.5138 151.764V152.594H84.6843V151.764H85.5138ZM86.5175 151.316L87.1377 151.323C87.1751 151.577 87.2797 151.779 87.4515 151.929C87.6234 152.078 87.8401 152.153 88.1091 152.153C88.8041 152.153 89.2001 151.577 89.2898 150.427C89.3047 150.322 89.3047 150.203 89.3047 150.076C89.0058 150.554 88.5799 150.8 88.012 150.8C87.5337 150.8 87.1377 150.636 86.8388 150.322C86.5399 150.008 86.3905 149.59 86.3905 149.082C86.3905 148.551 86.5548 148.125 86.8762 147.796C87.205 147.468 87.6234 147.303 88.139 147.303C89.357 147.303 89.9623 148.163 89.9623 149.889C89.9623 150.15 89.9473 150.404 89.9174 150.643C89.8876 150.883 89.8278 151.137 89.7381 151.391C89.6559 151.645 89.5438 151.869 89.4093 152.056C89.2748 152.25 89.0955 152.399 88.8713 152.519C88.6471 152.639 88.3856 152.698 88.0942 152.698C87.6458 152.698 87.2722 152.579 86.9882 152.332C86.7043 152.093 86.5474 151.749 86.5175 151.316ZM88.1091 147.871C87.7953 147.871 87.5487 147.976 87.3544 148.192C87.1601 148.409 87.063 148.701 87.063 149.059C87.063 149.396 87.1601 149.672 87.3395 149.896C87.5188 150.12 87.7803 150.232 88.1091 150.232C88.4379 150.232 88.6994 150.12 88.8937 149.911C89.0955 149.702 89.1926 149.418 89.1926 149.074C89.1926 148.708 89.0955 148.417 88.8937 148.2C88.6994 147.976 88.4379 147.871 88.1091 147.871ZM92.3659 147.296C92.6797 147.296 92.9562 147.356 93.1804 147.475C93.4046 147.595 93.5839 147.737 93.7035 147.901C93.823 148.073 93.9127 148.297 93.9874 148.566C94.0547 148.835 94.0995 149.082 94.1144 149.298C94.1294 149.515 94.1369 149.777 94.1369 150.076C94.1369 150.359 94.1219 150.606 94.0995 150.83C94.0771 151.054 94.0323 151.294 93.9575 151.533C93.8828 151.779 93.7857 151.981 93.6661 152.145C93.5391 152.31 93.3672 152.437 93.158 152.541C92.9413 152.646 92.6872 152.698 92.3958 152.698C92.0819 152.698 91.8129 152.646 91.5888 152.541C91.3646 152.437 91.1853 152.302 91.0657 152.145C90.9387 151.981 90.8415 151.779 90.7668 151.533C90.6921 151.286 90.6472 151.054 90.6248 150.83C90.6099 150.606 90.5949 150.352 90.5949 150.061C90.5949 149.814 90.6024 149.597 90.6173 149.41C90.6323 149.231 90.6547 149.022 90.6921 148.79C90.7294 148.559 90.7892 148.364 90.8639 148.2C90.9461 148.036 91.0507 147.886 91.1778 147.737C91.2973 147.595 91.4617 147.483 91.6635 147.408C91.8652 147.333 92.0969 147.296 92.3659 147.296ZM92.3659 147.864C92.209 147.864 92.0745 147.894 91.9549 147.953C91.8354 148.013 91.7382 148.073 91.6635 148.148C91.5888 148.222 91.5215 148.334 91.4692 148.484C91.4094 148.633 91.3721 148.753 91.3496 148.85C91.3272 148.955 91.3123 149.097 91.2973 149.283C91.2824 149.47 91.2749 149.605 91.2749 149.679V150.061C91.2749 150.24 91.2749 150.382 91.2824 150.494C91.2824 150.614 91.2973 150.763 91.3198 150.942C91.3347 151.129 91.3721 151.286 91.4244 151.406C91.4692 151.525 91.5365 151.652 91.6112 151.772C91.6859 151.891 91.783 151.988 91.9176 152.048C92.0521 152.108 92.2015 152.138 92.3808 152.138C92.5303 152.138 92.6573 152.116 92.7769 152.056C92.8964 152.003 92.9936 151.936 93.0683 151.861C93.143 151.787 93.2028 151.682 93.2551 151.548C93.3074 151.413 93.3448 151.294 93.3747 151.189C93.3971 151.084 93.412 150.95 93.427 150.778C93.4419 150.606 93.4494 150.479 93.4494 150.397C93.4494 150.315 93.4569 150.195 93.4569 150.031V149.657C93.4569 149.582 93.4494 149.455 93.4345 149.269C93.4195 149.089 93.3971 148.947 93.3747 148.843C93.3523 148.745 93.3149 148.626 93.2626 148.476C93.2028 148.334 93.143 148.222 93.0683 148.148C92.9936 148.073 92.8964 148.013 92.7769 147.953C92.6573 147.894 92.5153 147.864 92.3659 147.864Z" fill="white"/>
<path d="M125.159 281.71L125.779 281.718C125.816 281.972 125.921 282.174 126.093 282.323C126.265 282.473 126.481 282.547 126.75 282.547C127.445 282.547 127.841 281.972 127.931 280.821C127.946 280.717 127.946 280.597 127.946 280.47C127.647 280.948 127.221 281.195 126.653 281.195C126.175 281.195 125.779 281.031 125.48 280.717C125.181 280.403 125.032 279.984 125.032 279.476C125.032 278.946 125.196 278.52 125.517 278.191C125.846 277.862 126.265 277.698 126.78 277.698C127.998 277.698 128.604 278.557 128.604 280.283C128.604 280.545 128.589 280.799 128.559 281.038C128.529 281.277 128.469 281.531 128.379 281.785C128.297 282.039 128.185 282.263 128.051 282.45C127.916 282.645 127.737 282.794 127.513 282.914C127.288 283.033 127.027 283.093 126.735 283.093C126.287 283.093 125.913 282.973 125.63 282.727C125.346 282.488 125.189 282.144 125.159 281.71ZM126.75 278.266C126.437 278.266 126.19 278.37 125.996 278.587C125.801 278.804 125.704 279.095 125.704 279.454C125.704 279.79 125.801 280.067 125.981 280.291C126.16 280.515 126.422 280.627 126.75 280.627C127.079 280.627 127.341 280.515 127.535 280.306C127.737 280.096 127.834 279.812 127.834 279.469C127.834 279.103 127.737 278.811 127.535 278.594C127.341 278.37 127.079 278.266 126.75 278.266ZM132.674 279.065L132.016 279.073C131.986 278.819 131.889 278.617 131.739 278.467C131.59 278.318 131.381 278.251 131.119 278.251C130.94 278.251 130.783 278.281 130.641 278.348C130.499 278.408 130.387 278.505 130.297 278.624C130.208 278.744 130.133 278.871 130.073 278.998C130.013 279.118 129.969 279.274 129.939 279.454C129.909 279.633 129.894 279.775 129.879 279.887C129.871 279.999 129.864 280.134 129.849 280.298C130.14 279.835 130.581 279.603 131.164 279.603C131.657 279.603 132.061 279.753 132.36 280.067C132.659 280.38 132.808 280.791 132.808 281.3C132.808 281.823 132.651 282.249 132.337 282.592C132.023 282.929 131.598 283.1 131.067 283.1C129.841 283.1 129.221 282.219 129.221 280.47C129.221 280.194 129.244 279.932 129.274 279.693C129.303 279.446 129.363 279.2 129.453 278.946C129.543 278.692 129.655 278.475 129.797 278.296C129.931 278.116 130.118 277.974 130.35 277.862C130.581 277.75 130.85 277.69 131.149 277.69C131.59 277.69 131.949 277.817 132.218 278.056C132.487 278.296 132.636 278.632 132.674 279.065ZM131.052 280.156C130.731 280.156 130.469 280.261 130.267 280.478C130.073 280.694 129.969 280.978 129.969 281.329C129.969 281.688 130.073 281.98 130.275 282.204C130.477 282.42 130.738 282.532 131.067 282.532C131.388 282.532 131.65 282.42 131.844 282.211C132.038 282.002 132.136 281.718 132.136 281.359C132.136 280.986 132.038 280.694 131.844 280.478C131.65 280.261 131.388 280.156 131.052 280.156ZM135.159 277.69C135.473 277.69 135.75 277.75 135.974 277.87C136.198 277.989 136.377 278.131 136.497 278.296C136.616 278.467 136.706 278.692 136.781 278.961C136.848 279.23 136.893 279.476 136.908 279.693C136.923 279.91 136.93 280.171 136.93 280.47C136.93 280.754 136.915 281.001 136.893 281.225C136.871 281.449 136.826 281.688 136.751 281.927C136.676 282.174 136.579 282.376 136.46 282.54C136.333 282.704 136.161 282.831 135.951 282.936C135.735 283.041 135.481 283.093 135.189 283.093C134.875 283.093 134.606 283.041 134.382 282.936C134.158 282.831 133.979 282.697 133.859 282.54C133.732 282.376 133.635 282.174 133.56 281.927C133.486 281.681 133.441 281.449 133.418 281.225C133.403 281.001 133.388 280.747 133.388 280.455C133.388 280.209 133.396 279.992 133.411 279.805C133.426 279.626 133.448 279.416 133.486 279.185C133.523 278.953 133.583 278.759 133.657 278.594C133.74 278.43 133.844 278.281 133.971 278.131C134.091 277.989 134.255 277.877 134.457 277.802C134.659 277.728 134.89 277.69 135.159 277.69ZM135.159 278.258C135.002 278.258 134.868 278.288 134.748 278.348C134.629 278.408 134.532 278.467 134.457 278.542C134.382 278.617 134.315 278.729 134.263 278.878C134.203 279.028 134.166 279.147 134.143 279.245C134.121 279.349 134.106 279.491 134.091 279.678C134.076 279.865 134.068 279.999 134.068 280.074V280.455C134.068 280.634 134.068 280.776 134.076 280.889C134.076 281.008 134.091 281.158 134.113 281.337C134.128 281.524 134.166 281.681 134.218 281.8C134.263 281.92 134.33 282.047 134.405 282.166C134.479 282.286 134.577 282.383 134.711 282.443C134.846 282.503 134.995 282.532 135.174 282.532C135.324 282.532 135.451 282.51 135.57 282.45C135.69 282.398 135.787 282.331 135.862 282.256C135.936 282.181 135.996 282.077 136.049 281.942C136.101 281.808 136.138 281.688 136.168 281.583C136.191 281.479 136.205 281.344 136.22 281.172C136.235 281.001 136.243 280.874 136.243 280.791C136.243 280.709 136.25 280.59 136.25 280.425V280.052C136.25 279.977 136.243 279.85 136.228 279.663C136.213 279.484 136.191 279.342 136.168 279.237C136.146 279.14 136.108 279.02 136.056 278.871C135.996 278.729 135.936 278.617 135.862 278.542C135.787 278.467 135.69 278.408 135.57 278.348C135.451 278.288 135.309 278.258 135.159 278.258Z" fill="white"/>
<path d="M423.044 297.292L417.754 297.292L417.754 296.597L421.587 296.597L421.587 295.267L422.066 295.267C422.066 295.693 422.133 296.029 422.275 296.284C422.409 296.538 422.671 296.702 423.044 296.792L423.044 297.292ZM423.044 301.444L417.754 301.444L417.754 300.75L421.587 300.75L421.587 299.419L422.066 299.419C422.066 299.845 422.133 300.182 422.275 300.436C422.409 300.69 422.671 300.854 423.044 300.944L423.044 301.444ZM418.329 306.561L417.754 306.553L417.754 303.101C418.045 303.116 418.299 303.161 418.524 303.235C418.74 303.31 418.935 303.43 419.114 303.587C419.293 303.743 419.435 303.893 419.555 304.042C419.667 304.192 419.809 304.409 419.981 304.678C420.25 305.111 420.451 305.387 420.586 305.522C420.855 305.806 421.161 305.94 421.498 305.94C421.789 305.94 422.028 305.851 422.215 305.656C422.402 305.47 422.499 305.223 422.499 304.917C422.499 304.558 422.372 304.296 422.118 304.14C421.864 303.983 421.55 303.9 421.169 303.885L421.169 303.243L421.311 303.243C421.834 303.243 422.252 303.4 422.574 303.714C422.887 304.027 423.052 304.438 423.052 304.947C423.052 305.455 422.91 305.851 422.633 306.15C422.349 306.449 421.976 306.598 421.513 306.598C421.311 306.598 421.124 306.568 420.945 306.501C420.765 306.434 420.623 306.359 420.504 306.277C420.384 306.194 420.257 306.067 420.123 305.903C419.988 305.739 419.884 305.597 419.809 305.485C419.734 305.38 419.637 305.223 419.517 305.014C419.271 304.61 419.084 304.334 418.949 304.199C418.755 304.012 418.553 303.893 418.329 303.841L418.329 306.561ZM423.052 309.144C423.052 309.457 422.992 309.734 422.873 309.958C422.753 310.182 422.611 310.362 422.447 310.481C422.275 310.601 422.051 310.69 421.782 310.765C421.513 310.832 421.266 310.877 421.049 310.892C420.833 310.907 420.571 310.915 420.272 310.915C419.988 310.915 419.742 310.9 419.517 310.877C419.293 310.855 419.054 310.81 418.815 310.735C418.568 310.66 418.367 310.563 418.202 310.444C418.038 310.317 417.911 310.145 417.806 309.936C417.702 309.719 417.649 309.465 417.649 309.173C417.649 308.86 417.702 308.591 417.806 308.366C417.911 308.142 418.045 307.963 418.202 307.843C418.367 307.716 418.568 307.619 418.815 307.544C419.062 307.47 419.293 307.425 419.517 307.402C419.742 307.388 419.996 307.373 420.287 307.373C420.534 307.373 420.75 307.38 420.937 307.395C421.117 307.41 421.326 307.432 421.557 307.47C421.789 307.507 421.983 307.567 422.148 307.642C422.312 307.724 422.462 307.828 422.611 307.955C422.753 308.075 422.865 308.239 422.94 308.441C423.015 308.643 423.052 308.875 423.052 309.144ZM422.484 309.144C422.484 308.987 422.454 308.852 422.394 308.733C422.335 308.613 422.275 308.516 422.2 308.441C422.125 308.366 422.013 308.299 421.864 308.247C421.714 308.187 421.595 308.15 421.498 308.127C421.393 308.105 421.251 308.09 421.064 308.075C420.877 308.06 420.743 308.053 420.668 308.053L420.287 308.053C420.108 308.053 419.966 308.053 419.854 308.06C419.734 308.06 419.585 308.075 419.405 308.097C419.219 308.112 419.062 308.15 418.942 308.202C418.822 308.247 418.695 308.314 418.576 308.389C418.456 308.464 418.359 308.561 418.299 308.695C418.24 308.83 418.21 308.979 418.21 309.159C418.21 309.308 418.232 309.435 418.292 309.555C418.344 309.674 418.411 309.771 418.486 309.846C418.561 309.921 418.666 309.98 418.8 310.033C418.935 310.085 419.054 310.122 419.159 310.152C419.263 310.175 419.398 310.19 419.57 310.205C419.742 310.22 419.869 310.227 419.951 310.227C420.033 310.227 420.153 310.235 420.317 310.235L420.691 310.235C420.765 310.235 420.892 310.227 421.079 310.212C421.258 310.197 421.4 310.175 421.505 310.152C421.602 310.13 421.722 310.093 421.871 310.04C422.013 309.98 422.125 309.921 422.2 309.846C422.275 309.771 422.335 309.674 422.394 309.555C422.454 309.435 422.484 309.293 422.484 309.144Z" fill="white"/>
<path d="M252.021 285.118L251.476 285.118C250.153 283.959 248.599 283.287 246.82 283.093L246.82 282.39C247.635 282.45 248.442 282.659 249.249 283.033C250.048 283.406 250.773 283.885 251.416 284.468L251.416 281.695L252.021 281.695L252.021 285.118ZM249.652 286.737C249.75 286.498 249.891 286.318 250.086 286.191C250.28 286.064 250.504 285.997 250.766 285.997C251.162 285.997 251.483 286.146 251.737 286.438C251.991 286.737 252.118 287.11 252.118 287.574C252.118 288.037 251.991 288.411 251.745 288.702C251.498 288.993 251.184 289.135 250.796 289.135C250.258 289.135 249.877 288.896 249.652 288.411C249.428 289.038 249.002 289.345 248.36 289.345C247.852 289.345 247.455 289.188 247.157 288.859C246.858 288.538 246.716 288.104 246.716 287.559C246.716 287.028 246.858 286.602 247.149 286.281C247.441 285.96 247.829 285.803 248.315 285.803C248.629 285.803 248.905 285.877 249.137 286.042C249.368 286.206 249.54 286.438 249.652 286.737ZM251.543 287.574C251.543 287.297 251.468 287.073 251.319 286.901C251.169 286.737 250.968 286.647 250.713 286.647C250.467 286.647 250.265 286.737 250.116 286.901C249.966 287.073 249.891 287.297 249.891 287.574C249.891 287.85 249.966 288.074 250.116 288.239C250.265 288.403 250.467 288.485 250.713 288.485C250.968 288.485 251.169 288.403 251.319 288.239C251.468 288.074 251.543 287.858 251.543 287.574ZM249.368 287.551C249.368 287.237 249.271 286.976 249.077 286.767C248.883 286.565 248.629 286.46 248.322 286.46C248.008 286.46 247.754 286.565 247.553 286.774C247.351 286.983 247.246 287.245 247.246 287.566C247.246 287.895 247.351 288.164 247.545 288.373C247.747 288.582 248.001 288.68 248.315 288.68C248.629 288.68 248.883 288.575 249.077 288.366C249.271 288.156 249.368 287.887 249.368 287.551ZM252.118 291.726C252.118 292.04 252.058 292.316 251.939 292.54C251.819 292.764 251.677 292.944 251.513 293.063C251.341 293.183 251.117 293.273 250.848 293.347C250.579 293.415 250.332 293.459 250.116 293.474C249.899 293.489 249.637 293.497 249.339 293.497C249.055 293.497 248.808 293.482 248.584 293.459C248.36 293.437 248.121 293.392 247.881 293.317C247.635 293.243 247.433 293.146 247.269 293.026C247.104 292.899 246.977 292.727 246.873 292.518C246.768 292.301 246.716 292.047 246.716 291.756C246.716 291.442 246.768 291.173 246.873 290.949C246.977 290.724 247.112 290.545 247.269 290.426C247.433 290.299 247.635 290.201 247.881 290.127C248.128 290.052 248.36 290.007 248.584 289.985C248.808 289.97 249.062 289.955 249.353 289.955C249.6 289.955 249.817 289.962 250.004 289.977C250.183 289.992 250.392 290.015 250.624 290.052C250.855 290.089 251.05 290.149 251.214 290.224C251.379 290.306 251.528 290.411 251.677 290.538C251.819 290.657 251.931 290.822 252.006 291.023C252.081 291.225 252.118 291.457 252.118 291.726ZM251.55 291.726C251.55 291.569 251.52 291.434 251.461 291.315C251.401 291.195 251.341 291.098 251.266 291.023C251.192 290.949 251.08 290.881 250.93 290.829C250.781 290.769 250.661 290.732 250.564 290.71C250.459 290.687 250.317 290.672 250.131 290.657C249.944 290.642 249.809 290.635 249.735 290.635L249.353 290.635C249.174 290.635 249.032 290.635 248.92 290.642C248.801 290.642 248.651 290.657 248.472 290.68C248.285 290.695 248.128 290.732 248.008 290.784C247.889 290.829 247.762 290.896 247.642 290.971C247.523 291.046 247.426 291.143 247.366 291.277C247.306 291.412 247.276 291.561 247.276 291.741C247.276 291.89 247.299 292.017 247.358 292.137C247.411 292.256 247.478 292.353 247.553 292.428C247.627 292.503 247.732 292.563 247.866 292.615C248.001 292.667 248.121 292.705 248.225 292.735C248.33 292.757 248.464 292.772 248.636 292.787C248.808 292.802 248.935 292.809 249.017 292.809C249.099 292.809 249.219 292.817 249.383 292.817L249.757 292.817C249.832 292.817 249.959 292.809 250.146 292.794C250.325 292.779 250.467 292.757 250.571 292.735C250.669 292.712 250.788 292.675 250.938 292.622C251.08 292.563 251.192 292.503 251.266 292.428C251.341 292.353 251.401 292.256 251.461 292.137C251.52 292.017 251.55 291.875 251.55 291.726Z" fill="white"/>
<path d="M116.986 304.517L116.978 303.86C117.232 303.83 117.434 303.733 117.583 303.583C117.733 303.434 117.8 303.225 117.8 302.963C117.8 302.784 117.77 302.627 117.703 302.485C117.643 302.343 117.546 302.231 117.426 302.141C117.307 302.052 117.18 301.977 117.053 301.917C116.933 301.857 116.776 301.812 116.597 301.783C116.418 301.753 116.276 301.738 116.164 301.723C116.051 301.715 115.917 301.708 115.753 301.693C116.216 301.984 116.448 302.425 116.448 303.008C116.448 303.501 116.298 303.905 115.984 304.204C115.67 304.503 115.259 304.652 114.751 304.652C114.228 304.652 113.802 304.495 113.459 304.181C113.122 303.867 112.95 303.441 112.95 302.911C112.95 301.685 113.832 301.065 115.581 301.065C115.857 301.065 116.119 301.088 116.358 301.118C116.604 301.147 116.851 301.207 117.105 301.297C117.359 301.387 117.576 301.499 117.755 301.641C117.935 301.775 118.077 301.962 118.189 302.194C118.301 302.425 118.36 302.694 118.36 302.993C118.36 303.434 118.233 303.793 117.994 304.062C117.755 304.331 117.419 304.48 116.986 304.517ZM115.895 302.896C115.895 302.575 115.79 302.313 115.573 302.111C115.357 301.917 115.073 301.812 114.721 301.812C114.363 301.812 114.071 301.917 113.847 302.119C113.63 302.321 113.518 302.582 113.518 302.911C113.518 303.232 113.63 303.494 113.84 303.688C114.049 303.882 114.333 303.979 114.691 303.979C115.065 303.979 115.357 303.882 115.573 303.688C115.79 303.494 115.895 303.232 115.895 302.896ZM118.36 307.003C118.36 307.317 118.301 307.594 118.181 307.818C118.062 308.042 117.92 308.221 117.755 308.341C117.583 308.46 117.359 308.55 117.09 308.625C116.821 308.692 116.575 308.737 116.358 308.752C116.141 308.767 115.88 308.774 115.581 308.774C115.297 308.774 115.05 308.759 114.826 308.737C114.602 308.714 114.363 308.67 114.124 308.595C113.877 308.52 113.675 308.423 113.511 308.303C113.346 308.176 113.219 308.005 113.115 307.795C113.01 307.579 112.958 307.325 112.958 307.033C112.958 306.719 113.01 306.45 113.115 306.226C113.219 306.002 113.354 305.823 113.511 305.703C113.675 305.576 113.877 305.479 114.124 305.404C114.37 305.329 114.602 305.285 114.826 305.262C115.05 305.247 115.304 305.232 115.596 305.232C115.842 305.232 116.059 305.24 116.246 305.255C116.425 305.27 116.634 305.292 116.866 305.329C117.098 305.367 117.292 305.427 117.456 305.501C117.621 305.584 117.77 305.688 117.92 305.815C118.062 305.935 118.174 306.099 118.248 306.301C118.323 306.503 118.36 306.734 118.36 307.003ZM117.793 307.003C117.793 306.846 117.763 306.712 117.703 306.592C117.643 306.473 117.583 306.376 117.509 306.301C117.434 306.226 117.322 306.159 117.172 306.107C117.023 306.047 116.903 306.009 116.806 305.987C116.702 305.965 116.56 305.95 116.373 305.935C116.186 305.92 116.051 305.912 115.977 305.912L115.596 305.912C115.416 305.912 115.274 305.912 115.162 305.92C115.043 305.92 114.893 305.935 114.714 305.957C114.527 305.972 114.37 306.009 114.251 306.062C114.131 306.107 114.004 306.174 113.884 306.249C113.765 306.323 113.668 306.42 113.608 306.555C113.548 306.689 113.518 306.839 113.518 307.018C113.518 307.168 113.541 307.295 113.601 307.414C113.653 307.534 113.72 307.631 113.795 307.706C113.87 307.78 113.974 307.84 114.109 307.893C114.243 307.945 114.363 307.982 114.467 308.012C114.572 308.034 114.706 308.049 114.878 308.064C115.05 308.079 115.177 308.087 115.259 308.087C115.342 308.087 115.461 308.094 115.626 308.094L115.999 308.094C116.074 308.094 116.201 308.087 116.388 308.072C116.567 308.057 116.709 308.034 116.814 308.012C116.911 307.99 117.03 307.952 117.18 307.9C117.322 307.84 117.434 307.78 117.509 307.706C117.583 307.631 117.643 307.534 117.703 307.414C117.763 307.295 117.793 307.153 117.793 307.003ZM118.36 311.155C118.36 311.469 118.301 311.746 118.181 311.97C118.062 312.194 117.92 312.373 117.755 312.493C117.583 312.613 117.359 312.702 117.09 312.777C116.821 312.844 116.575 312.889 116.358 312.904C116.141 312.919 115.88 312.926 115.581 312.926C115.297 312.926 115.05 312.911 114.826 312.889C114.602 312.867 114.363 312.822 114.124 312.747C113.877 312.672 113.675 312.575 113.511 312.456C113.346 312.329 113.219 312.157 113.115 311.948C113.01 311.731 112.958 311.477 112.958 311.185C112.958 310.871 113.01 310.602 113.115 310.378C113.219 310.154 113.354 309.975 113.511 309.855C113.675 309.728 113.877 309.631 114.124 309.556C114.37 309.482 114.602 309.437 114.826 309.414C115.05 309.399 115.304 309.384 115.596 309.384C115.842 309.384 116.059 309.392 116.246 309.407C116.425 309.422 116.634 309.444 116.866 309.482C117.098 309.519 117.292 309.579 117.456 309.653C117.621 309.736 117.77 309.84 117.92 309.967C118.062 310.087 118.174 310.251 118.248 310.453C118.323 310.655 118.36 310.886 118.36 311.155ZM117.793 311.155C117.793 310.999 117.763 310.864 117.703 310.744C117.643 310.625 117.583 310.528 117.509 310.453C117.434 310.378 117.322 310.311 117.172 310.259C117.023 310.199 116.903 310.162 116.806 310.139C116.702 310.117 116.56 310.102 116.373 310.087C116.186 310.072 116.051 310.064 115.977 310.064L115.596 310.064C115.416 310.064 115.274 310.064 115.162 310.072C115.043 310.072 114.893 310.087 114.714 310.109C114.527 310.124 114.37 310.162 114.251 310.214C114.131 310.259 114.004 310.326 113.884 310.401C113.765 310.475 113.668 310.573 113.608 310.707C113.548 310.842 113.518 310.991 113.518 311.17C113.518 311.32 113.541 311.447 113.601 311.566C113.653 311.686 113.72 311.783 113.795 311.858C113.87 311.933 113.974 311.992 114.109 312.045C114.243 312.097 114.363 312.134 114.467 312.164C114.572 312.187 114.706 312.202 114.878 312.217C115.05 312.231 115.177 312.239 115.259 312.239C115.342 312.239 115.461 312.246 115.626 312.246L115.999 312.246C116.074 312.246 116.201 312.239 116.388 312.224C116.567 312.209 116.709 312.187 116.814 312.164C116.911 312.142 117.03 312.104 117.18 312.052C117.322 311.992 117.434 311.933 117.509 311.858C117.583 311.783 117.643 311.686 117.703 311.566C117.763 311.447 117.793 311.305 117.793 311.155Z" fill="white"/>
<path d="M373.184 300.343C373.199 299.797 373.348 299.379 373.639 299.08C373.931 298.781 374.342 298.631 374.865 298.631C375.328 298.631 375.709 298.758 375.993 299.012C376.277 299.267 376.419 299.595 376.419 300.014C376.419 300.26 376.352 300.485 376.225 300.679C376.098 300.873 375.918 301.023 375.694 301.12C375.993 301.187 376.225 301.336 376.404 301.568C376.576 301.792 376.666 302.069 376.666 302.397C376.666 302.883 376.501 303.279 376.158 303.578C375.814 303.877 375.373 304.034 374.835 304.034C374.297 304.034 373.864 303.885 373.542 303.586C373.221 303.287 373.064 302.891 373.064 302.39V302.293H373.692C373.707 302.667 373.811 302.958 374.013 303.167C374.207 303.369 374.484 303.474 374.842 303.474C375.179 303.474 375.455 303.376 375.664 303.182C375.874 302.988 375.978 302.741 375.978 302.435C375.978 302.128 375.874 301.882 375.664 301.695C375.455 301.516 375.164 301.419 374.805 301.419C374.715 301.419 374.603 301.434 374.461 301.448V300.91C374.536 300.918 374.603 300.918 374.678 300.918C375.007 300.918 375.268 300.843 375.463 300.686C375.657 300.529 375.747 300.313 375.747 300.044C375.747 299.79 375.664 299.58 375.5 299.416C375.336 299.259 375.111 299.177 374.835 299.177C374.514 299.177 374.267 299.281 374.088 299.483C373.908 299.685 373.811 299.969 373.804 300.343H373.184Z" fill="white"/>
<circle cx="240.613" cy="162.164" r="8.01477" stroke="white" stroke-width="1.15708"/>
<circle cx="8.59331" cy="227.546" r="8.01477" stroke="white" stroke-width="1.15708"/>
<circle cx="8.59331" cy="375.132" r="8.01477" stroke="white" stroke-width="1.15708"/>
<circle cx="412.105" cy="140.5" r="8.01477" stroke="white" stroke-width="1.15708"/>
<circle cx="496.918" cy="227.546" r="8.01477" stroke="white" stroke-width="1.15708"/>
<circle cx="496.918" cy="388.207" r="8.01477" stroke="white" stroke-width="1.15708"/>
<circle cx="374.742" cy="302.648" r="8.01477" stroke="white" stroke-width="1.15708"/>
<circle cx="142.351" cy="88.5621" r="8.01477" stroke="white" stroke-width="1.15708"/>
<path d="M142.745 84.9204V90.2109H142.051V86.3776H140.72V85.8993C141.146 85.8993 141.483 85.8321 141.737 85.6901C141.991 85.5556 142.155 85.2941 142.245 84.9204H142.745Z" fill="white"/>
<path d="M96.582 67.8242H203.998" stroke="white" stroke-width="1.49449" stroke-dasharray="2.99 2.99"/>
<path d="M316.27 375.875H459.74" stroke="white" stroke-width="1.49449" stroke-dasharray="2.99 2.99"/>
<path d="M70.9844 289.195H203.62" stroke="white" stroke-width="1.49449" stroke-dasharray="2.99 2.99"/>
<path d="M107.23 231.656L107.23 371.391" stroke="white" stroke-width="1.49449" stroke-dasharray="2.99 2.99"/>
<path d="M240.238 217.086L240.238 359.062" stroke="white" stroke-width="1.49449" stroke-dasharray="2.99 2.99"/>
<path d="M292.172 66.1445H362.039" stroke="white" stroke-width="1.49449" stroke-dasharray="2.99 2.99"/>
</svg>
