<svg width="103" height="107" viewBox="0 0 103 107" fill="none" xmlns="http://www.w3.org/2000/svg">
<path d="M63.5491 7.60896L101.94 67.9492L43.2317 105.302L4.84097 44.9613M63.5491 7.60896L61.4744 4.34798L51.6897 10.5734M63.5491 7.60896L4.84097 44.9613M4.84097 44.9613L2.76621 41.7003L11.4637 36.1666M51.6897 10.5734L48.9233 6.22539L8.69736 31.8187L11.4637 36.1666M51.6897 10.5734L11.4637 36.1666" stroke="white" stroke-width="1.44578"/>
<path d="M43.335 50.2539L39.5298 52.6749" stroke="white" stroke-width="1.44578"/>
<path d="M64.583 34.4414L61.865 36.1707" stroke="white" stroke-width="1.44578"/>
<path d="M52.4766 74.2188L49.7586 75.948" stroke="white" stroke-width="1.44578"/>
<path d="M80.9424 55.3477L75.5064 58.8062" stroke="white" stroke-width="1.44578"/>
<path d="M37.8008 58.3594L40.5676 62.7081" stroke="white" stroke-width="1.44578"/>
<path d="M60.5303 40.0781L62.6054 43.3397" stroke="white" stroke-width="1.44578"/>
<path d="M48.4219 79.8555L50.497 83.117" stroke="white" stroke-width="1.44578"/>
<path d="M74.0723 67.3516L77.8767 73.3311" stroke="white" stroke-width="1.44578"/>
<path d="M29.8496 45.8555L33.3082 51.2914" stroke="white" stroke-width="1.44578"/>
<path d="M54.999 31.3789L57.42 35.1841" stroke="white" stroke-width="1.44578"/>
<path d="M42.8838 71.1562L45.3048 74.9614" stroke="white" stroke-width="1.44578"/>
<path d="M62.6523 49.418L67.4943 57.0283" stroke="white" stroke-width="1.44578"/>
<path d="M32.4678 57.1719L27.5754 60.2846" stroke="white" stroke-width="1.44578"/>
<path d="M56.9717 39.2852L53.7101 41.3603" stroke="white" stroke-width="1.44578"/>
<path d="M44.8652 79.0625L41.6037 81.1376" stroke="white" stroke-width="1.44578"/>
<path d="M65.1738 65.375L59.1943 69.1794" stroke="white" stroke-width="1.44578"/>
<path d="M40.8745 63.1827C36.4254 66.0134 30.4171 64.6035 27.4684 59.9689C24.5197 55.3343 25.7883 49.2946 30.2374 46.4639C34.6865 43.6332 40.6949 45.0431 43.6436 49.6777C46.5923 54.3123 45.3236 60.352 40.8745 63.1827Z" stroke="white" stroke-width="1.44578"/>
<circle cx="59.2475" cy="37.4591" r="6.68645" transform="rotate(57.5339 59.2475 37.4591)" stroke="white" stroke-width="1.44578"/>
<circle cx="47.1391" cy="77.2365" r="6.68645" transform="rotate(57.5339 47.1391 77.2365)" stroke="white" stroke-width="1.44578"/>
<path d="M77.906 73.9839C71.1753 78.2663 62.3459 76.3866 58.1748 69.8307C54.0037 63.2748 56.042 54.4808 62.7728 50.1984C69.5035 45.9161 78.3328 47.7958 82.5039 54.3516C86.675 60.9075 84.6367 69.7016 77.906 73.9839Z" stroke="white" stroke-width="1.44578"/>
<circle cx="55.9459" cy="20.8535" r="3.22145" transform="rotate(57.5339 55.9459 20.8535)" fill="white"/>
<circle cx="43.9791" cy="28.459" r="3.22145" transform="rotate(57.5339 43.9791 28.459)" fill="white"/>
<ellipse cx="31.7454" cy="36.2413" rx="3.22145" ry="3.5436" transform="rotate(57.5339 31.7454 36.2413)" fill="white"/>
<circle cx="19.5162" cy="44.0215" r="3.22145" transform="rotate(57.5339 19.5162 44.0215)" fill="white"/>
</svg>
