<svg width="674" height="408" viewBox="0 0 674 408" fill="none" xmlns="http://www.w3.org/2000/svg">
<line x1="196.75" y1="0.636719" x2="196.75" y2="407.928" stroke="#545454" stroke-width="0.867807"/>
<line x1="392.153" y1="0.636719" x2="392.153" y2="407.928" stroke="#545454" stroke-width="0.867807"/>
<line x1="538.754" y1="0.636719" x2="538.754" y2="407.928" stroke="#545454" stroke-width="0.867807"/>
<line x1="0.789063" y1="196.209" x2="673.309" y2="196.209" stroke="#545454" stroke-width="0.867807"/>
<line x1="0.789063" y1="393.855" x2="673.309" y2="393.855" stroke="#545454" stroke-width="0.867807"/>
<line x1="50.1956" y1="0.636719" x2="50.1956" y2="407.928" stroke="#545454" stroke-width="0.867807"/>
<line x1="245.598" y1="0.636719" x2="245.598" y2="407.928" stroke="#545454" stroke-width="0.867807"/>
<line x1="440.996" y1="0.636719" x2="440.996" y2="407.928" stroke="#545454" stroke-width="0.867807"/>
<line x1="587.598" y1="0.636719" x2="587.598" y2="407.928" stroke="#545454" stroke-width="0.867807"/>
<line x1="0.789063" y1="146.89" x2="673.309" y2="146.89" stroke="#545454" stroke-width="0.867807"/>
<line x1="0.789063" y1="344.537" x2="673.309" y2="344.537" stroke="#545454" stroke-width="0.867807"/>
<line x1="99.0472" y1="0.636719" x2="99.0472" y2="407.928" stroke="#545454" stroke-width="0.867807"/>
<line x1="294.446" y1="0.636719" x2="294.446" y2="407.928" stroke="#545454" stroke-width="0.867807"/>
<line x1="489.848" y1="0.636719" x2="489.848" y2="407.928" stroke="#545454" stroke-width="0.867807"/>
<line x1="636.45" y1="0.636719" x2="636.45" y2="407.928" stroke="#545454" stroke-width="0.867807"/>
<line x1="0.789063" y1="97.1989" x2="673.309" y2="97.1989" stroke="#545454" stroke-width="0.867807"/>
<line x1="0.789063" y1="294.841" x2="673.309" y2="294.841" stroke="#545454" stroke-width="0.867807"/>
<line x1="147.895" y1="0.636719" x2="147.895" y2="407.928" stroke="#545454" stroke-width="0.867807"/>
<line x1="343.301" y1="0.636719" x2="343.301" y2="407.928" stroke="#545454" stroke-width="0.867807"/>
<line x1="0.789063" y1="47.8805" x2="673.309" y2="47.8806" stroke="#545454" stroke-width="0.867807"/>
<line x1="0.789063" y1="245.525" x2="673.309" y2="245.525" stroke="#545454" stroke-width="0.867807"/>
<line x1="13.5589" y1="0.636719" x2="13.5589" y2="407.928" stroke="#545454" stroke-width="0.867807"/>
<line x1="208.957" y1="0.636719" x2="208.957" y2="407.928" stroke="#545454" stroke-width="0.867807"/>
<line x1="404.36" y1="0.636719" x2="404.36" y2="407.928" stroke="#545454" stroke-width="0.867807"/>
<line x1="550.961" y1="0.636719" x2="550.961" y2="407.928" stroke="#545454" stroke-width="0.867807"/>
<line x1="0.789063" y1="183.506" x2="673.309" y2="183.506" stroke="#545454" stroke-width="0.867807"/>
<line x1="0.789063" y1="381.527" x2="673.309" y2="381.527" stroke="#545454" stroke-width="0.867807"/>
<line x1="62.4066" y1="0.636719" x2="62.4065" y2="407.928" stroke="#545454" stroke-width="0.867807"/>
<line x1="257.813" y1="0.636719" x2="257.813" y2="407.928" stroke="#545454" stroke-width="0.867807"/>
<line x1="453.215" y1="0.636719" x2="453.215" y2="407.928" stroke="#545454" stroke-width="0.867807"/>
<line x1="599.809" y1="0.636719" x2="599.809" y2="407.928" stroke="#545454" stroke-width="0.867807"/>
<line x1="0.789063" y1="134.187" x2="673.309" y2="134.187" stroke="#545454" stroke-width="0.867807"/>
<line x1="0.789063" y1="332.209" x2="673.309" y2="332.209" stroke="#545454" stroke-width="0.867807"/>
<line x1="111.262" y1="0.636719" x2="111.262" y2="407.928" stroke="#545454" stroke-width="0.867807"/>
<line x1="306.66" y1="0.636719" x2="306.66" y2="407.928" stroke="#545454" stroke-width="0.867807"/>
<line x1="502.067" y1="0.636719" x2="502.067" y2="407.928" stroke="#545454" stroke-width="0.867807"/>
<line x1="648.664" y1="0.636719" x2="648.664" y2="407.928" stroke="#545454" stroke-width="0.867807"/>
<line x1="0.789063" y1="84.4958" x2="673.309" y2="84.4958" stroke="#545454" stroke-width="0.867807"/>
<line x1="0.789063" y1="282.515" x2="673.309" y2="282.515" stroke="#545454" stroke-width="0.867807"/>
<line x1="160.114" y1="0.636719" x2="160.114" y2="407.928" stroke="#545454" stroke-width="0.867807"/>
<line x1="355.512" y1="0.636719" x2="355.512" y2="407.928" stroke="#545454" stroke-width="0.867807"/>
<line x1="0.789063" y1="35.5544" x2="673.309" y2="35.5544" stroke="#545454" stroke-width="0.867807"/>
<line x1="0.789063" y1="233.197" x2="673.309" y2="233.197" stroke="#545454" stroke-width="0.867807"/>
<line x1="25.7737" y1="0.636719" x2="25.7737" y2="407.928" stroke="#545454" stroke-width="0.867807"/>
<line x1="221.176" y1="0.636719" x2="221.176" y2="407.928" stroke="#545454" stroke-width="0.867807"/>
<line x1="416.578" y1="0.636719" x2="416.578" y2="407.928" stroke="#545454" stroke-width="0.867807"/>
<line x1="563.172" y1="0.636719" x2="563.172" y2="407.928" stroke="#545454" stroke-width="0.867807"/>
<line x1="0.789063" y1="171.175" x2="673.309" y2="171.175" stroke="#545454" stroke-width="0.867807"/>
<line x1="0.789063" y1="369.193" x2="673.309" y2="369.193" stroke="#545454" stroke-width="0.867807"/>
<line x1="74.6214" y1="0.636719" x2="74.6214" y2="407.928" stroke="#545454" stroke-width="0.867807"/>
<line x1="270.024" y1="0.636719" x2="270.024" y2="407.928" stroke="#545454" stroke-width="0.867807"/>
<line x1="465.422" y1="0.636719" x2="465.422" y2="407.928" stroke="#545454" stroke-width="0.867807"/>
<line x1="612.024" y1="0.636719" x2="612.024" y2="407.928" stroke="#545454" stroke-width="0.867807"/>
<line x1="0.789063" y1="122.23" x2="673.309" y2="122.23" stroke="#545454" stroke-width="0.867807"/>
<line x1="0.789063" y1="319.877" x2="673.309" y2="319.877" stroke="#545454" stroke-width="0.867807"/>
<line x1="123.469" y1="0.636719" x2="123.469" y2="407.928" stroke="#545454" stroke-width="0.867807"/>
<line x1="318.871" y1="0.636719" x2="318.871" y2="407.928" stroke="#545454" stroke-width="0.867807"/>
<line x1="514.278" y1="0.636719" x2="514.278" y2="407.928" stroke="#545454" stroke-width="0.867807"/>
<line x1="660.871" y1="0.636719" x2="660.871" y2="407.928" stroke="#545454" stroke-width="0.867807"/>
<line x1="0.789063" y1="72.5388" x2="673.309" y2="72.5387" stroke="#545454" stroke-width="0.867807"/>
<line x1="0.789063" y1="270.185" x2="673.309" y2="270.185" stroke="#545454" stroke-width="0.867807"/>
<line x1="172.317" y1="0.636719" x2="172.317" y2="407.928" stroke="#545454" stroke-width="0.867807"/>
<line x1="367.727" y1="0.636719" x2="367.727" y2="407.928" stroke="#545454" stroke-width="0.867807"/>
<line x1="0.789063" y1="22.8493" x2="673.309" y2="22.8493" stroke="#545454" stroke-width="0.867807"/>
<line x1="0.789063" y1="220.869" x2="673.309" y2="220.869" stroke="#545454" stroke-width="0.867807"/>
<line x1="37.9847" y1="0.636719" x2="37.9847" y2="407.928" stroke="#545454" stroke-width="0.867807"/>
<line x1="233.383" y1="0.636719" x2="233.383" y2="407.928" stroke="#545454" stroke-width="0.867807"/>
<line x1="428.782" y1="0.636719" x2="428.782" y2="407.928" stroke="#545454" stroke-width="0.867807"/>
<line x1="575.383" y1="0.636719" x2="575.383" y2="407.928" stroke="#545454" stroke-width="0.867807"/>
<line x1="0.789063" y1="159.218" x2="673.309" y2="159.218" stroke="#545454" stroke-width="0.867807"/>
<line x1="0.789063" y1="356.867" x2="673.309" y2="356.867" stroke="#545454" stroke-width="0.867807"/>
<line x1="86.8362" y1="0.636719" x2="86.8362" y2="407.928" stroke="#545454" stroke-width="0.867807"/>
<line x1="282.239" y1="0.636719" x2="282.239" y2="407.928" stroke="#545454" stroke-width="0.867807"/>
<line x1="477.641" y1="0.636719" x2="477.641" y2="407.928" stroke="#545454" stroke-width="0.867807"/>
<line x1="624.239" y1="0.636719" x2="624.239" y2="407.928" stroke="#545454" stroke-width="0.867807"/>
<line x1="0.789063" y1="109.529" x2="673.309" y2="109.529" stroke="#545454" stroke-width="0.867807"/>
<line x1="0.789063" y1="307.177" x2="673.309" y2="307.177" stroke="#545454" stroke-width="0.867807"/>
<line x1="135.688" y1="0.636719" x2="135.688" y2="407.928" stroke="#545454" stroke-width="0.867807"/>
<line x1="331.086" y1="0.636719" x2="331.086" y2="407.928" stroke="#545454" stroke-width="0.867807"/>
<line x1="0.789063" y1="60.2106" x2="673.309" y2="60.2106" stroke="#545454" stroke-width="0.867807"/>
<line x1="0.789063" y1="257.857" x2="673.309" y2="257.857" stroke="#545454" stroke-width="0.867807"/>
<line x1="184.532" y1="0.636719" x2="184.532" y2="407.928" stroke="#545454" stroke-width="0.867807"/>
<line x1="379.938" y1="0.636719" x2="379.938" y2="407.928" stroke="#545454" stroke-width="0.867807"/>
<line x1="526.535" y1="0.636719" x2="526.535" y2="407.928" stroke="#545454" stroke-width="0.867807"/>
<line x1="0.789063" y1="10.5153" x2="673.309" y2="10.5153" stroke="#545454" stroke-width="0.867807"/>
<line x1="0.789063" y1="208.539" x2="673.309" y2="208.539" stroke="#545454" stroke-width="0.867807"/>
</svg>
